<svg width="570" height="570" viewBox="0 0 570 570" fill="none" xmlns="http://www.w3.org/2000/svg">
<circle cx="285" cy="285" r="140" fill="#EF4F1D"/>
<path d="M417.745 252.442C420.141 253.668 425.095 255.665 425.747 253.849C426.563 251.58 422.249 249.039 417.852 250.055C424.483 247.006 427.888 240.576 425.228 239.039C423.748 238.183 421.151 240.636 419.051 243.203C421.423 239.751 423.39 236.005 420.5 236.793C419.525 237.059 418.714 237.417 418.044 237.823C418.293 236.89 418.115 235.94 417.132 235.138C415.993 234.209 415.117 233.863 414.47 233.824C417.447 232.132 420.791 229.085 417.286 226.344C413.21 223.157 410.45 222.896 409.579 223.163L409.578 238.471L417.745 252.442Z" fill="url(#paint0_linear_9297_63081)"/>
<path d="M417.746 322.175C420.236 321.156 425.341 319.584 425.838 321.448C426.46 323.778 421.947 325.947 417.651 324.564C424.002 328.161 426.852 334.855 424.073 336.162C422.525 336.89 420.144 334.227 418.268 331.492C420.341 335.132 421.985 339.03 419.172 338.002C418.223 337.654 417.445 337.229 416.812 336.768C416.981 337.719 416.724 338.65 415.676 339.367C414.463 340.197 413.561 340.467 412.913 340.452C415.738 342.388 418.812 345.707 415.089 348.143C410.759 350.975 407.987 351.002 407.142 350.662L408.431 335.409L417.746 322.175Z" fill="url(#paint1_linear_9297_63081)"/>
<path d="M400.104 282.968C402.355 281.495 407.068 278.982 407.911 280.718C408.963 282.887 404.944 285.874 400.464 285.331C407.382 287.657 411.451 293.688 408.97 295.499C407.589 296.508 404.746 294.345 402.385 292.016C405.111 295.196 407.465 298.712 404.508 298.236C403.51 298.075 402.666 297.805 401.957 297.473C402.304 298.374 402.228 299.337 401.335 300.24C400.302 301.285 399.467 301.722 398.829 301.83C401.969 303.195 405.618 305.869 402.424 308.968C398.711 312.57 395.994 313.124 395.1 312.95L393.47 297.73L400.104 282.968Z" fill="url(#paint2_linear_9297_63081)"/>
<path d="M431.261 276.583C418.966 288.04 392.754 277.46 389.083 272.252C389.083 280.183 387.5 294.03 392.138 292.67C422.128 283.873 434.032 292.643 438.908 299.506C439.529 300.38 440.902 299.97 440.64 298.931C439.139 292.98 434.776 289.942 431.499 288.5C441.653 287.27 446.584 282.522 449.158 276.978C449.666 275.882 447.797 275.192 447.051 276.141C440.248 284.792 430.438 285 424 285C424.914 284.793 430.111 281.512 432.571 277.297C433.101 276.388 432.031 275.866 431.261 276.583Z" fill="#FF6A3C"/>
<path d="M425.006 284.997L421.001 287C429.501 287 435.501 286.5 443.001 282C446.664 279.802 448.277 277.617 448.864 275.945C448.366 275.592 447.503 275.566 447.052 276.141C440.594 284.353 431.427 284.957 425.006 284.997Z" fill="#EF4F1D"/>
<path d="M389.1 274.643C389.089 273.796 389.083 272.992 389.083 272.251C392.754 277.46 418.966 288.039 431.261 276.583C431.564 276.301 431.913 276.21 432.193 276.26C429.678 279.684 426.042 282.417 420.917 283.023C411.733 284.11 398.486 281.853 389.239 279.704C389.212 279.037 389.161 277.144 389.1 274.643Z" fill="#EF4F1D"/>
<path d="M382.582 286.569C383.812 284.176 386.67 279.664 388.26 280.757C390.246 282.124 388.226 286.706 384.062 288.446C391.226 287.053 397.743 290.288 396.48 293.088C395.777 294.647 392.237 294.17 389.034 293.311C392.974 294.73 396.757 296.625 393.951 297.671C393.003 298.024 392.136 298.206 391.355 298.267C392.102 298.88 392.511 299.755 392.181 300.981C391.798 302.4 391.288 303.192 390.786 303.601C394.191 303.237 398.685 303.761 397.437 308.033C395.987 312.999 393.898 314.821 393.034 315.112L384.102 302.681L382.582 286.569Z" fill="url(#paint3_linear_9297_63081)"/>
<path d="M390.975 260.865C393.378 259.656 398.345 257.691 398.986 259.511C399.787 261.786 395.456 264.299 391.065 263.253C397.676 266.346 401.038 272.799 398.369 274.318C396.883 275.164 394.302 272.694 392.219 270.113C394.568 273.581 396.51 277.34 393.626 276.533C392.652 276.26 391.844 275.896 391.177 275.486C391.42 276.421 391.236 277.369 390.246 278.165C389.102 279.087 388.223 279.427 387.576 279.462C390.542 281.173 393.866 284.243 390.342 286.96C386.246 290.12 383.484 290.363 382.615 290.089L382.715 274.783L390.975 260.865Z" fill="url(#paint4_linear_9297_63081)"/>
<path d="M382.955 271.549C384.9 269.689 389.074 266.357 390.22 267.91C391.651 269.851 388.245 273.521 383.741 273.806C390.968 274.829 396.071 280.015 393.963 282.249C392.79 283.492 389.599 281.886 386.852 280.028C390.114 282.656 393.071 285.682 390.077 285.755C389.066 285.779 388.186 285.668 387.428 285.471C387.934 286.294 388.036 287.254 387.323 288.305C386.498 289.521 385.757 290.103 385.149 290.326C388.486 291.094 392.562 293.057 389.989 296.687C386.997 300.907 384.427 301.948 383.516 301.941L379.132 287.275L382.955 271.549Z" fill="url(#paint5_linear_9297_63081)"/>
<path d="M252.442 152.255C253.668 149.859 255.665 144.905 253.849 144.253C251.58 143.437 249.039 147.751 250.055 152.148C247.006 145.517 240.576 142.112 239.039 144.772C238.183 146.252 240.636 148.849 243.203 150.949C239.751 148.577 236.005 146.61 236.793 149.5C237.059 150.475 237.417 151.286 237.823 151.956C236.89 151.707 235.94 151.885 235.138 152.868C234.209 154.007 233.863 154.883 233.824 155.53C232.132 152.553 229.085 149.209 226.344 152.714C223.157 156.79 222.896 159.55 223.163 160.421L238.471 160.422L252.442 152.255Z" fill="url(#paint6_linear_9297_63081)"/>
<path d="M322.176 152.254C321.157 149.764 319.585 144.659 321.449 144.162C323.779 143.54 325.948 148.053 324.565 152.349C328.162 145.998 334.856 143.148 336.163 145.927C336.891 147.475 334.228 149.856 331.493 151.732C335.133 149.659 339.031 148.015 338.003 150.828C337.655 151.777 337.23 152.555 336.769 153.188C337.72 153.019 338.651 153.276 339.368 154.324C340.198 155.537 340.468 156.439 340.453 157.087C342.389 154.262 345.708 151.188 348.144 154.911C350.976 159.241 351.003 162.013 350.663 162.858L335.41 161.569L322.176 152.254Z" fill="url(#paint7_linear_9297_63081)"/>
<path d="M282.969 169.896C281.495 167.645 278.982 162.932 280.718 162.089C282.888 161.037 285.874 165.056 285.331 169.536C287.658 162.618 293.689 158.549 295.5 161.03C296.508 162.411 294.346 165.254 292.017 167.615C295.197 164.889 298.712 162.535 298.236 165.492C298.076 166.49 297.805 167.334 297.473 168.043C298.375 167.696 299.338 167.772 300.24 168.665C301.285 169.698 301.722 170.533 301.83 171.171C303.195 168.031 305.87 164.382 308.968 167.576C312.571 171.289 313.124 174.006 312.95 174.9L297.73 176.53L282.969 169.896Z" fill="url(#paint8_linear_9297_63081)"/>
<path d="M276.583 138.739C288.039 151.034 277.46 177.246 272.251 180.917C280.183 180.917 294.03 182.5 292.669 177.862C283.872 147.872 292.642 135.968 299.506 131.092C300.38 130.471 299.97 129.098 298.93 129.36C292.979 130.861 289.942 135.224 288.5 138.501C287.269 128.347 282.521 123.416 276.977 120.842C275.882 120.334 275.191 122.203 276.141 122.949C284.792 129.752 285 139.562 285 146C284.792 145.086 281.512 139.889 277.296 137.429C276.388 136.899 275.866 137.969 276.583 138.739Z" fill="#FF6A3C"/>
<path d="M284.998 144.995L287 149.001C287 140.501 286.5 134.501 282 127.001C279.803 123.338 277.617 121.725 275.945 121.138C275.592 121.636 275.567 122.498 276.141 122.95C284.353 129.408 284.957 138.575 284.998 144.995Z" fill="#EF4F1D"/>
<path d="M274.643 180.901C273.796 180.913 272.992 180.918 272.252 180.918C277.46 177.247 288.039 151.036 276.583 138.74C276.301 138.438 276.211 138.088 276.26 137.808C279.684 140.324 282.417 143.959 283.023 149.084C284.11 158.268 281.853 171.515 279.704 180.762C279.037 180.79 277.144 180.84 274.643 180.901Z" fill="#EF4F1D"/>
<path d="M286.569 187.418C284.176 186.188 279.664 183.33 280.757 181.74C282.124 179.754 286.706 181.774 288.446 185.938C287.053 178.774 290.288 172.257 293.088 173.52C294.647 174.223 294.17 177.763 293.311 180.966C294.73 177.026 296.625 173.243 297.671 176.049C298.024 176.997 298.206 177.864 298.267 178.645C298.88 177.898 299.755 177.489 300.981 177.819C302.4 178.202 303.192 178.712 303.601 179.214C303.237 175.809 303.761 171.315 308.033 172.563C312.999 174.013 314.821 176.102 315.112 176.966L302.681 185.898L286.569 187.418Z" fill="url(#paint9_linear_9297_63081)"/>
<path d="M260.866 179.025C259.656 176.622 257.692 171.655 259.512 171.014C261.786 170.213 264.299 174.544 263.254 178.935C266.347 172.324 272.799 168.962 274.318 171.631C275.164 173.117 272.694 175.698 270.114 177.781C273.581 175.432 277.34 173.49 276.533 176.374C276.261 177.348 275.897 178.156 275.487 178.823C276.422 178.58 277.37 178.764 278.166 179.754C279.087 180.898 279.427 181.777 279.462 182.424C281.173 179.458 284.243 176.134 286.961 179.658C290.121 183.754 290.364 186.516 290.09 187.385L274.783 187.285L260.866 179.025Z" fill="url(#paint10_linear_9297_63081)"/>
<path d="M271.549 187.045C269.689 185.1 266.357 180.926 267.909 179.78C269.85 178.349 273.521 181.755 273.806 186.259C274.829 179.032 280.014 173.929 282.248 176.037C283.492 177.21 281.886 180.401 280.028 183.148C282.656 179.886 285.682 176.929 285.754 179.923C285.779 180.934 285.667 181.814 285.47 182.572C286.293 182.066 287.254 181.964 288.305 182.677C289.521 183.502 290.103 184.243 290.325 184.851C291.094 181.514 293.056 177.438 296.686 180.011C300.907 183.003 301.947 185.573 301.94 186.484L287.274 190.868L271.549 187.045Z" fill="url(#paint11_linear_9297_63081)"/>
<path d="M317.558 417.745C316.332 420.141 314.335 425.095 316.151 425.747C318.42 426.563 320.961 422.249 319.945 417.852C322.994 424.483 329.424 427.888 330.961 425.228C331.817 423.748 329.364 421.151 326.797 419.051C330.249 421.423 333.995 423.39 333.207 420.5C332.941 419.525 332.583 418.714 332.177 418.044C333.11 418.293 334.06 418.115 334.862 417.132C335.791 415.993 336.137 415.117 336.176 414.47C337.868 417.447 340.915 420.791 343.656 417.286C346.843 413.21 347.104 410.45 346.837 409.579L331.529 409.578L317.558 417.745Z" fill="url(#paint12_linear_9297_63081)"/>
<path d="M247.824 417.746C248.843 420.236 250.415 425.341 248.551 425.838C246.221 426.46 244.052 421.947 245.435 417.651C241.838 424.002 235.144 426.852 233.837 424.073C233.109 422.525 235.772 420.144 238.507 418.268C234.867 420.341 230.969 421.985 231.997 419.172C232.345 418.223 232.77 417.445 233.231 416.812C232.28 416.981 231.349 416.724 230.632 415.676C229.802 414.463 229.532 413.561 229.547 412.913C227.611 415.738 224.292 418.812 221.856 415.089C219.024 410.759 218.997 407.987 219.337 407.142L234.59 408.431L247.824 417.746Z" fill="url(#paint13_linear_9297_63081)"/>
<path d="M287.031 400.104C288.505 402.355 291.018 407.068 289.282 407.911C287.112 408.963 284.126 404.944 284.669 400.464C282.342 407.382 276.311 411.451 274.5 408.97C273.492 407.589 275.654 404.746 277.983 402.385C274.803 405.111 271.288 407.465 271.764 404.508C271.924 403.51 272.195 402.666 272.527 401.957C271.625 402.304 270.662 402.228 269.76 401.335C268.715 400.302 268.278 399.467 268.17 398.829C266.805 401.969 264.13 405.618 261.032 402.424C257.429 398.711 256.876 395.994 257.05 395.1L272.27 393.47L287.031 400.104Z" fill="url(#paint14_linear_9297_63081)"/>
<path d="M306.27 459.02C315.594 462.339 327.009 460.403 307.716 453.715C284.596 445.699 282.858 408.072 300.803 393.586C304.501 382.493 267.363 386.03 263.665 389.406C286.041 392.127 278.788 422.203 281.832 432.814C284.461 441.978 286.334 456.094 281.832 470.756C269.935 502.428 274.276 520.435 279.099 517.541C277.813 509.985 279.903 497.927 281.832 491.174C283.762 497.766 298.713 501.624 297.106 496.641C287.942 494.711 285.281 479.76 287.459 474.133C289.389 469.149 292.926 455.805 292.282 451.142C295.884 454.744 303.108 457.895 306.27 459.02Z" fill="#FF6A3C"/>
<path d="M292.287 451.183L290.5 448.502C290.833 451.502 290.8 459.302 288 466.502C284.529 475.427 282.042 493.203 297.117 497.887C297.261 497.558 297.267 497.145 297.105 496.643C287.941 494.714 285.281 479.762 287.459 474.135C289.383 469.165 292.906 455.88 292.287 451.183Z" fill="#EF4F1D"/>
<path d="M292.791 386.671C287.873 401.999 283.7 422.226 288 435.984C293.672 454.136 309.624 458.821 318.108 458.997C317.504 457.843 314.519 456.075 307.716 453.717C284.595 445.702 282.858 408.074 300.803 393.588C302.103 389.689 298.357 387.597 292.791 386.671Z" fill="#EF4F1D"/>
<path d="M283.431 384.582C285.824 385.812 290.336 388.67 289.243 390.26C287.876 392.246 283.294 390.226 281.554 386.062C282.947 393.226 279.712 399.743 276.912 398.48C275.353 397.777 275.83 394.237 276.689 391.034C275.27 394.974 273.375 398.757 272.329 395.951C271.976 395.003 271.794 394.136 271.733 393.355C271.12 394.102 270.245 394.511 269.019 394.181C267.6 393.798 266.808 393.288 266.399 392.786C266.763 396.191 266.239 400.685 261.967 399.437C257.001 397.987 255.179 395.898 254.888 395.034L267.319 386.102L283.431 384.582Z" fill="url(#paint15_linear_9297_63081)"/>
<path d="M309.134 390.975C310.344 393.378 312.308 398.345 310.488 398.986C308.214 399.787 305.701 395.456 306.746 391.065C303.653 397.676 297.201 401.038 295.682 398.369C294.836 396.883 297.306 394.302 299.886 392.219C296.419 394.568 292.66 396.51 293.467 393.626C293.739 392.652 294.103 391.844 294.513 391.177C293.578 391.42 292.63 391.236 291.834 390.246C290.913 389.102 290.573 388.223 290.538 387.576C288.827 390.542 285.757 393.866 283.039 390.342C279.879 386.246 279.636 383.484 279.91 382.615L295.217 382.715L309.134 390.975Z" fill="url(#paint16_linear_9297_63081)"/>
<path d="M298.451 382.955C300.311 384.9 303.643 389.074 302.091 390.22C300.15 391.651 296.479 388.245 296.194 383.741C295.171 390.968 289.986 396.071 287.752 393.963C286.508 392.79 288.114 389.599 289.972 386.852C287.344 390.114 284.318 393.071 284.246 390.077C284.221 389.066 284.333 388.186 284.53 387.428C283.707 387.934 282.746 388.036 281.695 387.323C280.479 386.498 279.897 385.757 279.675 385.149C278.906 388.486 276.944 392.562 273.314 389.989C269.093 386.997 268.053 384.427 268.06 383.516L282.726 379.132L298.451 382.955Z" fill="url(#paint17_linear_9297_63081)"/>
<path d="M152.255 317.558C149.859 316.332 144.905 314.335 144.253 316.151C143.437 318.42 147.751 320.961 152.148 319.945C145.517 322.994 142.112 329.424 144.772 330.961C146.252 331.817 148.849 329.364 150.949 326.797C148.577 330.249 146.61 333.995 149.5 333.207C150.475 332.941 151.286 332.583 151.956 332.177C151.707 333.11 151.885 334.06 152.868 334.862C154.007 335.791 154.883 336.137 155.53 336.176C152.553 337.868 149.209 340.915 152.714 343.656C156.79 346.843 159.55 347.104 160.421 346.837L160.422 331.529L152.255 317.558Z" fill="url(#paint18_linear_9297_63081)"/>
<path d="M152.254 247.825C149.764 248.844 144.659 250.416 144.162 248.552C143.54 246.222 148.053 244.053 152.349 245.436C145.998 241.839 143.148 235.145 145.927 233.838C147.475 233.11 149.856 235.773 151.732 238.508C149.659 234.868 148.015 230.97 150.828 231.998C151.777 232.346 152.555 232.771 153.188 233.232C153.019 232.281 153.276 231.35 154.324 230.633C155.537 229.803 156.439 229.533 157.087 229.548C154.262 227.612 151.188 224.293 154.911 221.857C159.241 219.025 162.013 218.998 162.858 219.338L161.569 234.591L152.254 247.825Z" fill="url(#paint19_linear_9297_63081)"/>
<path d="M171.933 306.81C169.989 308.67 165.814 312.002 164.669 310.45C163.238 308.509 166.643 304.838 171.147 304.553C163.921 303.53 158.817 298.345 160.925 296.111C162.099 294.867 165.289 296.473 168.036 298.331C164.775 295.703 161.818 292.677 164.812 292.605C165.823 292.58 166.703 292.692 167.46 292.888C166.954 292.066 166.853 291.105 167.566 290.054C168.391 288.838 169.131 288.256 169.74 288.033C166.403 287.265 162.326 285.303 164.9 281.673C167.892 277.452 170.462 276.412 171.373 276.419L175.757 291.085L171.933 306.81Z" fill="url(#paint20_linear_9297_63081)"/>
<path d="M169.896 287.032C167.645 288.505 162.932 291.018 162.089 289.282C161.037 287.113 165.056 284.126 169.536 284.669C162.618 282.343 158.549 276.312 161.03 274.501C162.411 273.492 165.254 275.655 167.615 277.984C164.889 274.804 162.535 271.288 165.492 271.764C166.49 271.925 167.334 272.195 168.043 272.527C167.696 271.626 167.772 270.663 168.665 269.76C169.698 268.715 170.533 268.278 171.171 268.17C168.031 266.805 164.382 264.131 167.576 261.032C171.289 257.43 174.006 256.876 174.9 257.05L176.53 272.27L169.896 287.032Z" fill="url(#paint21_linear_9297_63081)"/>
<path d="M87.1126 313.443C89.24 317.858 87.8378 322.267 86.2012 325.033C85.7454 325.803 86.3204 326.818 87.1548 326.494C93.3428 324.093 95.39 314.168 91.4179 309.325C90.8848 309.325 89.2775 310.149 87.1126 313.443Z" fill="#EF4F1D"/>
<path d="M85.0957 304.501C88.0571 310.741 85.7857 316.974 83.4845 320.572C83.004 321.323 83.5668 322.341 84.4192 322.079C93.0734 319.422 96.0677 305.653 90.7227 299.035C90.026 299.035 87.9252 300.128 85.0957 304.501Z" fill="#EF4F1D"/>
<path d="M170.467 327.491C169.824 330.706 173.415 333.118 175.29 333.922C175.29 321.06 177.863 321.864 178.024 317.845C178.184 313.825 173.522 310.288 174.647 308.52C175.548 307.105 175.451 304.179 175.29 302.893C175.29 289.174 175.483 261.35 176.255 259.806C177.027 258.263 175.505 255.841 174.647 254.822C176.094 253.054 181.4 248.81 182.043 242.121C182.686 235.433 181.668 236.548 182.043 236.977C179.953 236.923 176.416 233.986 177.059 238.745C177.702 243.504 172.241 245.176 170.467 247.266C168.967 249.035 166.384 253.793 168.056 258.681C170.146 264.79 163.393 267.363 162.268 268.809C161.143 270.256 133.972 268.809 131.078 267.363C128.345 255.144 122.718 254.822 120.467 251.446C120.253 243.296 117.392 241.083 114.651 240.56C113.65 240.37 113.029 242.205 113.584 243.06C116.361 247.338 116.791 254.362 113.876 251.446C113.978 248.476 112.775 246.549 111.432 245.542C110.719 245.008 110.241 245.834 110.637 246.632C111.524 248.425 111.243 250.093 110.178 250.803C107.561 250.018 104.895 250.273 102.982 250.736C102.14 250.94 102.179 251.832 103.034 251.969C106.27 252.488 110.982 252.831 110.982 256.109C110.982 257.924 108.782 258.392 106.504 258.595C105.523 258.683 105.332 259.787 106.288 260.022C111.699 261.348 113.762 257.165 115.001 256.752C120.146 260.289 120.307 266.398 119.985 268.809C115.395 270.67 93.4827 268.798 77.8002 267.402C76.5806 267.294 76.1674 269.451 77.2979 269.922C82.6981 272.168 86.1119 274.861 85.0009 278C83.6176 281.908 69.624 280.968 60.8915 281.292C59.7706 281.333 59.8238 282.234 60.9381 282.362C70.2227 283.428 77.7022 286.592 77.7022 289.549C77.7022 292.634 75.2836 297.496 67.9904 299.9C67.0179 300.22 67.006 301.446 68.0298 301.431C76.0022 301.31 82.1488 291.8 87.6701 291.8C96.9979 293.929 80.4699 310.39 69.7918 317.26C68.8112 317.891 69.2894 320.401 70.4093 320.076C79.6705 317.389 88.2834 306.541 91.8501 301.446C95.4514 296.301 102.001 296.5 105.355 296.623C123.468 296.516 160.435 296.623 163.393 297.909C167.091 299.517 164.84 309.002 164.84 311.575C164.84 314.147 166.93 317.202 170.467 318.97C174.004 320.739 171.271 323.472 170.467 327.491Z" fill="#FF6A3C"/>
<path d="M69.5917 319.721C69.7905 320.012 70.0709 320.174 70.4103 320.076C79.6715 317.389 88.2845 306.541 91.8512 301.445C95.4524 296.301 102.502 296.5 105.356 296.622C123.47 296.515 160.436 296.622 163.394 297.908C166.277 299.162 165.545 305.201 165.082 309.022C164.951 310.103 164.841 311.007 164.841 311.574C164.841 314.146 166.931 317.201 170.468 318.969C172.981 320.226 172.329 321.969 171.453 324.314C171.229 324.913 170.991 325.551 170.787 326.23C171.823 325.421 172.82 324.679 173.709 324.018C175.558 322.642 176.932 321.62 177.185 321.081C177.187 321.075 177.19 321.068 177.193 321.061C177.622 320.054 177.969 319.24 178.025 317.844C178.109 315.743 176.875 313.774 175.839 312.12C174.893 310.61 174.111 309.363 174.648 308.519C175.549 307.105 175.452 304.179 175.291 302.892C175.291 302.002 175.292 301.052 175.294 300.053L165.646 294.05L103.428 294.05C93.2492 294.05 88.7655 300.314 84.4787 306.303C82.7393 308.733 81.0323 311.118 78.9904 313.021C76.2618 315.564 72.8255 317.86 69.5898 319.718L69.5917 319.721Z" fill="#EF4F1D"/>
<path d="M87.8302 291.839L88.9566 290.675C87.6169 290.3 83.2331 290.868 76.4165 296.142C74.6753 297.488 72.5755 298.396 70.3254 298.976C69.6096 299.313 68.8326 299.623 67.9907 299.9C67.0224 300.22 67.0064 301.436 68.0168 301.432C69.0924 301.417 70.1348 301.231 71.1469 300.92C74.2154 299.979 77.0055 297.892 79.5993 295.952C81.7721 294.326 83.8072 292.804 85.7528 292.145C86.4014 291.925 87.04 291.801 87.6705 291.801C87.7246 291.813 87.7778 291.826 87.8302 291.839Z" fill="#EF4F1D"/>
<path d="M177.509 328.711C175.804 330.792 172.063 334.605 170.738 333.202C169.083 331.449 172.02 327.393 176.456 326.565C169.159 326.424 163.466 321.893 165.289 319.421C166.303 318.044 169.664 319.253 172.616 320.765C169.061 318.551 165.76 315.905 168.723 315.471C169.723 315.324 170.61 315.328 171.386 315.432C170.784 314.677 170.568 313.735 171.148 312.606C171.82 311.299 172.485 310.632 173.061 310.337C169.656 309.978 165.372 308.523 167.488 304.608C169.948 300.057 172.373 298.713 173.279 298.61L179.404 312.638L177.509 328.711Z" fill="url(#paint22_linear_9297_63081)"/>
<path d="M176.574 304.984C172.844 304.727 168.697 299.518 167.089 296.945L162.748 282.798C163.284 277.921 165.642 267.749 170.787 266.077C177.217 263.987 181.237 255.788 180.272 253.055C179.307 250.322 181.237 245.177 183.327 243.73C185.417 242.283 187.185 247.91 185.256 249.196C183.327 250.483 183.327 253.537 184.291 253.055C184.452 250.322 188.471 249.84 189.597 250.161C190.722 250.483 190.561 254.823 189.597 255.788C188.632 256.753 188.15 259.004 188.471 260.29C190.401 259.807 193.134 263.505 193.134 266.077C193.134 268.65 185.256 276.528 185.256 279.743C185.256 282.958 183.809 284.084 186.221 286.978C188.632 289.872 180.929 281.178 179 281.5C170.045 282.992 185.946 285.276 181.237 294.695C182.469 302.894 184.999 319.679 185.256 321.222C184.356 321.351 183.595 319.989 183.327 319.293C183.273 317.953 182.587 315.113 180.272 314.47C177.378 313.666 177.378 308.843 177.7 307.556C178.021 306.27 178.182 305.306 176.574 304.984Z" fill="#FF6A3C"/>
<path d="M146.351 295.337C144.222 295.897 141.287 301.786 139.61 305.774C139.202 306.745 138.26 307.395 137.207 307.395C135.664 307.395 134.474 306.039 134.74 304.52C136.217 296.094 139.819 283.347 145.547 283.118C153.586 282.797 156.953 286.494 155.193 290.835C152.782 296.784 149.405 294.533 146.351 295.337Z" fill="#FF6A3C"/>
<path d="M148.436 295.13C147.735 295.13 147.035 295.157 146.351 295.337C144.209 295.9 141.253 301.857 139.58 305.846C139.157 306.777 138.236 307.395 137.208 307.395C137.19 307.395 137.172 307.394 137.154 307.394C137.552 306.426 137.96 305.309 138.388 304.138C140.172 299.251 142.306 293.407 145.547 293.407C148.884 293.407 153.032 292.143 154.13 288.272C154.385 287.375 155.456 287.043 155.597 287.965C155.734 288.859 155.601 289.83 155.194 290.835C153.55 294.889 151.459 295.135 149.326 295.135C149.179 295.135 149.032 295.133 148.885 295.132C148.736 295.131 148.586 295.13 148.436 295.13Z" fill="#EF4F1D"/>
<path d="M119.778 268.887C120.852 268.648 121.796 268.186 122.235 267.362C121.11 263.021 119.824 256.912 114.679 255.626C114.174 256.384 110.942 260.34 106.504 260.072C110.392 260.934 112.512 258.921 113.846 257.653C114.313 257.209 114.684 256.857 115 256.751C120.145 260.288 120.306 266.398 119.984 268.809C119.919 268.836 119.85 268.862 119.778 268.887Z" fill="#EF4F1D"/>
<path d="M181.73 338.171C180.325 340.466 177.14 344.754 175.637 343.545C173.757 342.035 176.112 337.616 180.393 336.189C173.145 337.047 166.887 333.337 168.354 330.639C169.171 329.136 172.666 329.874 175.796 330.969C171.972 329.261 168.34 327.091 171.216 326.256C172.187 325.974 173.066 325.857 173.849 325.854C173.149 325.188 172.806 324.285 173.227 323.087C173.713 321.7 174.281 320.948 174.812 320.578C171.389 320.687 166.947 319.831 168.508 315.664C170.322 310.819 172.541 309.157 173.424 308.931L181.409 321.99L181.73 338.171Z" fill="url(#paint23_linear_9297_63081)"/>
<path d="M187.418 283.431C186.188 285.824 183.33 290.336 181.74 289.243C179.754 287.876 181.774 283.294 185.938 281.554C178.774 282.947 172.257 279.712 173.52 276.912C174.223 275.353 177.763 275.83 180.966 276.689C177.026 275.27 173.243 273.375 176.049 272.329C176.997 271.976 177.864 271.794 178.645 271.733C177.898 271.12 177.489 270.245 177.819 269.019C178.202 267.6 178.712 266.808 179.214 266.399C175.809 266.763 171.315 266.239 172.563 261.967C174.013 257.001 176.102 255.179 176.966 254.888L185.898 267.319L187.418 283.431Z" fill="url(#paint24_linear_9297_63081)"/>
<path d="M185.355 239.51C184.18 237.089 181.426 232.512 179.812 233.569C177.795 234.89 179.709 239.517 183.832 241.352C176.701 239.795 170.112 242.879 171.31 245.708C171.977 247.282 175.528 246.887 178.749 246.102C174.777 247.43 170.952 249.237 173.733 250.347C174.672 250.722 175.536 250.924 176.314 251.003C175.554 251.599 175.124 252.464 175.427 253.697C175.857 255.451 176.501 256.263 177.098 256.58C174.172 257.022 171.479 261.243 172.654 265.64C173.989 270.639 178.956 267.902 179.812 268.213L183.464 255.583L185.355 239.51Z" fill="url(#paint25_linear_9297_63081)"/>
<path d="M187.496 229.287C184.894 226.409 179.237 221.181 177.428 223.294C175.167 225.937 179.682 231.571 186.131 232.452C175.629 233.169 167.748 240.095 170.547 243.528C172.105 245.44 176.862 243.462 181.007 241.076C176.042 244.516 171.473 248.56 175.772 248.977C177.223 249.117 178.5 249.049 179.61 248.845C178.797 249.975 178.551 251.346 179.466 252.932C180.769 255.188 181.988 256.053 182.942 256.251C179.069 258.042 177.041 264.972 180.44 270.588C184.303 276.97 190.078 271.18 191.389 271.265L191.356 252.305L187.496 229.287Z" fill="url(#paint26_linear_9297_63081)"/>
<path d="M190.653 249.97C188.682 248.139 184.458 244.868 183.336 246.438C181.933 248.399 185.393 252.019 189.9 252.238C182.69 253.367 177.663 258.628 179.804 260.83C180.996 262.057 184.162 260.403 186.881 258.505C183.659 261.181 180.747 264.25 183.742 264.279C184.753 264.288 185.631 264.164 186.385 263.956C185.892 264.786 185.805 265.748 186.533 266.788C187.569 268.268 188.463 268.792 189.134 268.871C186.567 270.342 185.584 275.252 188.27 278.926C191.324 283.102 194.964 278.753 195.875 278.733L194.708 265.637L190.653 249.97Z" fill="url(#paint27_linear_9297_63081)"/>
<path d="M183.837 308.39C181.761 306.679 171.365 302.498 170.337 304.131C169.053 306.172 172.72 309.582 177.233 309.534C170.101 311.087 165.394 316.635 167.661 318.707C168.923 319.861 171.987 318.024 174.589 315.968C171.53 318.83 168.805 322.066 171.796 321.917C172.806 321.867 173.675 321.691 174.416 321.439C173.972 322.297 173.942 323.262 174.73 324.258C175.642 325.41 176.424 325.935 177.047 326.113C173.776 327.125 169.855 329.383 172.689 332.813C175.984 336.801 183.894 336.76 184.802 336.686L182.823 322.626L183.837 308.39Z" fill="url(#paint28_linear_9297_63081)"/>
<path d="M183.859 293.771C181.782 292.06 177.373 289.044 176.346 290.677C175.061 292.718 178.729 296.128 183.241 296.08C176.11 297.633 171.403 303.181 173.67 305.253C174.932 306.407 177.995 304.57 180.597 302.514C177.539 305.376 174.813 308.612 177.804 308.463C178.814 308.413 179.683 308.237 180.424 307.985C179.98 308.843 179.95 309.808 180.738 310.804C181.651 311.956 182.432 312.481 183.055 312.659C179.784 313.671 175.864 315.929 178.698 319.359C181.993 323.347 184.633 324.196 185.541 324.121L188.832 309.172L183.859 293.771Z" fill="url(#paint29_linear_9297_63081)"/>
<path d="M187.595 296.859C185.651 298.719 181.476 302.051 180.331 300.498C178.9 298.558 182.305 294.887 186.81 294.602C179.583 293.579 174.48 288.393 176.588 286.159C177.761 284.916 180.951 286.522 183.698 288.38C180.437 285.752 177.48 282.726 180.474 282.653C181.485 282.629 182.365 282.74 183.122 282.937C182.616 282.114 182.515 281.154 183.228 280.103C184.053 278.887 184.794 278.305 185.402 278.082C182.065 277.314 177.988 275.351 180.562 271.721C183.554 267.501 193.095 264.638 194.006 264.645L191.419 281.133L187.595 296.859Z" fill="url(#paint30_linear_9297_63081)"/>
<path d="M191.316 308.633C189.152 310.233 184.591 313.012 183.65 311.327C182.475 309.221 186.317 306.01 190.821 306.295C183.781 304.369 179.373 298.58 181.746 296.63C183.067 295.545 186.029 297.541 188.519 299.73C185.616 296.712 183.064 293.337 186.043 293.643C187.049 293.746 187.908 293.967 188.635 294.258C188.237 293.378 188.257 292.412 189.097 291.46C190.069 290.358 190.877 289.874 191.508 289.73C188.295 288.547 184.499 286.085 187.509 282.809C191.01 279 193.691 278.292 194.594 278.414L197.093 293.515L191.316 308.633Z" fill="url(#paint31_linear_9297_63081)"/>
<defs>
<linearGradient id="paint0_linear_9297_63081" x1="424.931" y1="236.477" x2="410.345" y2="240.964" gradientUnits="userSpaceOnUse">
<stop stop-color="#FF6A3B"/>
<stop offset="0.634449" stop-color="#EF4F1D"/>
</linearGradient>
<linearGradient id="paint1_linear_9297_63081" x1="423.561" y1="338.69" x2="409.405" y2="332.99" gradientUnits="userSpaceOnUse">
<stop stop-color="#FF6A3B"/>
<stop offset="0.634449" stop-color="#EF4F1D"/>
</linearGradient>
<linearGradient id="paint2_linear_9297_63081" x1="408.948" y1="298.079" x2="393.967" y2="295.169" gradientUnits="userSpaceOnUse">
<stop stop-color="#FF6A3B"/>
<stop offset="0.634449" stop-color="#EF4F1D"/>
</linearGradient>
<linearGradient id="paint3_linear_9297_63081" x1="397.734" y1="295.342" x2="383.27" y2="300.209" gradientUnits="userSpaceOnUse">
<stop stop-color="#FF6A3B"/>
<stop offset="0.634449" stop-color="#EF4F1D"/>
</linearGradient>
<linearGradient id="paint4_linear_9297_63081" x1="398.055" y1="276.878" x2="383.499" y2="272.295" gradientUnits="userSpaceOnUse">
<stop stop-color="#FF6A3B"/>
<stop offset="0.634449" stop-color="#EF4F1D"/>
</linearGradient>
<linearGradient id="paint5_linear_9297_63081" x1="394.413" y1="284.789" x2="379.152" y2="284.666" gradientUnits="userSpaceOnUse">
<stop stop-color="#FF6A3B"/>
<stop offset="0.634449" stop-color="#EF4F1D"/>
</linearGradient>
<linearGradient id="paint6_linear_9297_63081" x1="236.477" y1="145.069" x2="240.964" y2="159.655" gradientUnits="userSpaceOnUse">
<stop stop-color="#FF6A3B"/>
<stop offset="0.634449" stop-color="#EF4F1D"/>
</linearGradient>
<linearGradient id="paint7_linear_9297_63081" x1="338.691" y1="146.439" x2="332.991" y2="160.595" gradientUnits="userSpaceOnUse">
<stop stop-color="#FF6A3B"/>
<stop offset="0.634449" stop-color="#EF4F1D"/>
</linearGradient>
<linearGradient id="paint8_linear_9297_63081" x1="298.079" y1="161.052" x2="295.17" y2="176.033" gradientUnits="userSpaceOnUse">
<stop stop-color="#FF6A3B"/>
<stop offset="0.634449" stop-color="#EF4F1D"/>
</linearGradient>
<linearGradient id="paint9_linear_9297_63081" x1="295.342" y1="172.266" x2="300.209" y2="186.73" gradientUnits="userSpaceOnUse">
<stop stop-color="#FF6A3B"/>
<stop offset="0.634449" stop-color="#EF4F1D"/>
</linearGradient>
<linearGradient id="paint10_linear_9297_63081" x1="276.879" y1="171.945" x2="272.295" y2="186.501" gradientUnits="userSpaceOnUse">
<stop stop-color="#FF6A3B"/>
<stop offset="0.634449" stop-color="#EF4F1D"/>
</linearGradient>
<linearGradient id="paint11_linear_9297_63081" x1="284.788" y1="175.587" x2="284.666" y2="190.848" gradientUnits="userSpaceOnUse">
<stop stop-color="#FF6A3B"/>
<stop offset="0.634449" stop-color="#EF4F1D"/>
</linearGradient>
<linearGradient id="paint12_linear_9297_63081" x1="333.523" y1="424.931" x2="329.036" y2="410.345" gradientUnits="userSpaceOnUse">
<stop stop-color="#FF6A3B"/>
<stop offset="0.634449" stop-color="#EF4F1D"/>
</linearGradient>
<linearGradient id="paint13_linear_9297_63081" x1="231.309" y1="423.561" x2="237.009" y2="409.405" gradientUnits="userSpaceOnUse">
<stop stop-color="#FF6A3B"/>
<stop offset="0.634449" stop-color="#EF4F1D"/>
</linearGradient>
<linearGradient id="paint14_linear_9297_63081" x1="271.921" y1="408.948" x2="274.83" y2="393.967" gradientUnits="userSpaceOnUse">
<stop stop-color="#FF6A3B"/>
<stop offset="0.634449" stop-color="#EF4F1D"/>
</linearGradient>
<linearGradient id="paint15_linear_9297_63081" x1="274.658" y1="399.734" x2="269.791" y2="385.27" gradientUnits="userSpaceOnUse">
<stop stop-color="#FF6A3B"/>
<stop offset="0.634449" stop-color="#EF4F1D"/>
</linearGradient>
<linearGradient id="paint16_linear_9297_63081" x1="293.121" y1="398.055" x2="297.705" y2="383.499" gradientUnits="userSpaceOnUse">
<stop stop-color="#FF6A3B"/>
<stop offset="0.634449" stop-color="#EF4F1D"/>
</linearGradient>
<linearGradient id="paint17_linear_9297_63081" x1="285.212" y1="394.413" x2="285.334" y2="379.152" gradientUnits="userSpaceOnUse">
<stop stop-color="#FF6A3B"/>
<stop offset="0.634449" stop-color="#EF4F1D"/>
</linearGradient>
<linearGradient id="paint18_linear_9297_63081" x1="145.069" y1="333.523" x2="159.655" y2="329.036" gradientUnits="userSpaceOnUse">
<stop stop-color="#FF6A3B"/>
<stop offset="0.634449" stop-color="#EF4F1D"/>
</linearGradient>
<linearGradient id="paint19_linear_9297_63081" x1="146.439" y1="231.31" x2="160.595" y2="237.01" gradientUnits="userSpaceOnUse">
<stop stop-color="#FF6A3B"/>
<stop offset="0.634449" stop-color="#EF4F1D"/>
</linearGradient>
<linearGradient id="paint20_linear_9297_63081" x1="160.476" y1="293.571" x2="175.736" y2="293.693" gradientUnits="userSpaceOnUse">
<stop stop-color="#FF6A3B"/>
<stop offset="0.634449" stop-color="#EF4F1D"/>
</linearGradient>
<linearGradient id="paint21_linear_9297_63081" x1="161.052" y1="271.921" x2="176.033" y2="274.831" gradientUnits="userSpaceOnUse">
<stop stop-color="#FF6A3B"/>
<stop offset="0.634449" stop-color="#EF4F1D"/>
</linearGradient>
<linearGradient id="paint22_linear_9297_63081" x1="164.535" y1="316.954" x2="179.698" y2="315.23" gradientUnits="userSpaceOnUse">
<stop stop-color="#FF6A3B"/>
<stop offset="0.634449" stop-color="#EF4F1D"/>
</linearGradient>
<linearGradient id="paint23_linear_9297_63081" x1="168.139" y1="326.343" x2="181.73" y2="326.343" gradientUnits="userSpaceOnUse">
<stop stop-color="#FF6A3B"/>
<stop offset="0.634449" stop-color="#EF4F1D"/>
</linearGradient>
<linearGradient id="paint24_linear_9297_63081" x1="172.266" y1="274.658" x2="186.73" y2="269.791" gradientUnits="userSpaceOnUse">
<stop stop-color="#FF6A3B"/>
<stop offset="0.634449" stop-color="#EF4F1D"/>
</linearGradient>
<linearGradient id="paint25_linear_9297_63081" x1="169.938" y1="248.115" x2="185.103" y2="253.61" gradientUnits="userSpaceOnUse">
<stop stop-color="#FF6A3B"/>
<stop offset="0.634449" stop-color="#EF4F1D"/>
</linearGradient>
<linearGradient id="paint26_linear_9297_63081" x1="169.618" y1="247.415" x2="192.83" y2="248.912" gradientUnits="userSpaceOnUse">
<stop stop-color="#FF6A3B"/>
<stop offset="0.634449" stop-color="#EF4F1D"/>
</linearGradient>
<linearGradient id="paint27_linear_9297_63081" x1="179.396" y1="263.571" x2="195.522" y2="263.205" gradientUnits="userSpaceOnUse">
<stop stop-color="#FF6A3B"/>
<stop offset="0.634449" stop-color="#EF4F1D"/>
</linearGradient>
<linearGradient id="paint28_linear_9297_63081" x1="167.386" y1="321.098" x2="184.762" y2="319.673" gradientUnits="userSpaceOnUse">
<stop stop-color="#FF6A3B"/>
<stop offset="0.634449" stop-color="#EF4F1D"/>
</linearGradient>
<linearGradient id="paint29_linear_9297_63081" x1="173.409" y1="307.82" x2="188.618" y2="306.572" gradientUnits="userSpaceOnUse">
<stop stop-color="#FF6A3B"/>
<stop offset="0.634449" stop-color="#EF4F1D"/>
</linearGradient>
<linearGradient id="paint30_linear_9297_63081" x1="176.146" y1="282.68" x2="193.861" y2="282.822" gradientUnits="userSpaceOnUse">
<stop stop-color="#FF6A3B"/>
<stop offset="0.634449" stop-color="#EF4F1D"/>
</linearGradient>
<linearGradient id="paint31_linear_9297_63081" x1="181.62" y1="294.054" x2="196.743" y2="296.1" gradientUnits="userSpaceOnUse">
<stop stop-color="#FF6A3B"/>
<stop offset="0.634449" stop-color="#EF4F1D"/>
</linearGradient>
</defs>
</svg>
